<svg width="16" height="16" viewBox="0 0 16 16" fill="none" xmlns="http://www.w3.org/2000/svg">
<path d="M8 0C3.58737 0 0 3.58737 0 8C0 12.4126 3.58737 16 8 16C12.4126 16 16 12.4126 16 8C16 3.58737 12.4126 0 8 0ZM8.69056 11.9747V12.9853C8.69056 13.0864 8.60632 13.1874 8.48849 13.1874H7.51165C7.41061 13.1874 7.30958 13.1032 7.30958 12.9853V12.0085C6.31592 11.9412 5.50741 11.1664 5.40639 10.1727C5.38959 10.0548 5.49062 9.97065 5.60846 9.97065H6.60211C6.68635 9.97065 6.77058 10.0212 6.78738 10.1054C6.8547 10.4085 7.12419 10.6444 7.44422 10.6444H8.30314C8.80843 10.6444 9.27998 10.2739 9.33051 9.76859C9.39783 9.17906 8.92627 8.6907 8.35367 8.6907H7.71364C6.48419 8.6907 5.3894 7.79807 5.27156 6.58543C5.15361 5.28856 6.07995 4.19386 7.29258 4.0254V3.03175C7.29258 2.93072 7.37682 2.84648 7.49465 2.84648H8.47149C8.57253 2.84648 8.67356 2.93072 8.67356 3.03175V4.00859C9.66722 4.07591 10.4757 4.8507 10.5768 5.84435C10.5936 5.9623 10.4925 6.04642 10.3747 6.04642H9.38103C9.29679 6.04642 9.21256 5.9959 9.19576 5.89487C9.12844 5.59177 8.85895 5.35586 8.53892 5.35586H7.68C7.17471 5.35586 6.70316 5.72639 6.65263 6.23168C6.58531 6.82122 7.05687 7.30958 7.62947 7.30958H8.37056C9.73474 7.30958 10.8463 8.48849 10.7116 9.88642C10.5937 10.9811 9.73477 11.7895 8.69059 11.9748L8.69056 11.9747Z" fill="white"/>
</svg>
