<svg width="996" height="679" viewBox="0 0 996 679" fill="none" xmlns="http://www.w3.org/2000/svg">
<g filter="url(#filter0_b_527_1591)">
<g clip-path="url(#clip0_527_1591)">
<path d="M0 8.00001C0 3.58173 3.58172 0 8 0H988C992.418 0 996 3.58172 996 8V671C996 675.418 992.418 679 988 679H8.00001C3.58174 679 0 675.418 0 671V8.00001Z" fill="url(#paint0_radial_527_1591)" fill-opacity="0.4"/>
<path d="M0 8.00001C0 3.58173 3.58172 0 8 0H988C992.418 0 996 3.58172 996 8V671C996 675.418 992.418 679 988 679H8.00001C3.58174 679 0 675.418 0 671V8.00001Z" fill="#11121A" fill-opacity="0.56"/>
<path d="M0 10C0 4.47715 4.47715 0 10 0H986C991.523 0 996 4.47715 996 10V53H0V10Z" fill="#10142C" fill-opacity="0.4"/>
<path d="M961.324 30.8711H962.744V32.1411C962.744 33.8511 963.607 34.7144 965.35 34.7144H973.684C975.411 34.7144 976.282 33.8511 976.282 32.1411V23.7407C976.282 22.0308 975.411 21.1675 973.684 21.1675H972.256V19.8975C972.256 18.1875 971.385 17.3242 969.658 17.3242H961.324C959.581 17.3242 958.718 18.1875 958.718 19.8975V28.2979C958.718 30.0078 959.581 30.8711 961.324 30.8711ZM961.341 29.5347C960.511 29.5347 960.054 29.0864 960.054 28.2231V19.9722C960.054 19.1089 960.511 18.6606 961.341 18.6606H969.633C970.455 18.6606 970.92 19.1089 970.92 19.9722V21.1675H965.35C963.607 21.1675 962.744 22.0225 962.744 23.7407V29.5347H961.341ZM965.367 33.3779C964.545 33.3779 964.08 32.9297 964.08 32.0664V23.8154C964.08 22.9521 964.545 22.5039 965.367 22.5039H973.659C974.481 22.5039 974.946 22.9521 974.946 23.8154V32.0664C974.946 32.9297 974.481 33.3779 973.659 33.3779H965.367Z" fill="#6E6589"/>
<g filter="url(#filter1_i_527_1591)">
<path fill-rule="evenodd" clip-rule="evenodd" d="M25.6154 29C28.1644 29 30.2308 26.9853 30.2308 24.5C30.2308 22.0147 28.1644 20 25.6154 20C23.0664 20 21 22.0147 21 24.5C21 26.9853 23.0664 29 25.6154 29Z" fill="#EE6A5F"/>
</g>
<path d="M29.9808 24.5C29.9808 26.8413 28.0323 28.75 25.6154 28.75C23.1984 28.75 21.25 26.8413 21.25 24.5C21.25 22.1587 23.1984 20.25 25.6154 20.25C28.0323 20.25 29.9808 22.1587 29.9808 24.5Z" stroke="#CE5347" stroke-width="0.5"/>
<g filter="url(#filter2_i_527_1591)">
<path fill-rule="evenodd" clip-rule="evenodd" d="M41 29C43.549 29 45.6154 26.9853 45.6154 24.5C45.6154 22.0147 43.549 20 41 20C38.451 20 36.3846 22.0147 36.3846 24.5C36.3846 26.9853 38.451 29 41 29Z" fill="#F5BD4F"/>
</g>
<path d="M45.3654 24.5C45.3654 26.8413 43.4169 28.75 41 28.75C38.5831 28.75 36.6346 26.8413 36.6346 24.5C36.6346 22.1587 38.5831 20.25 41 20.25C43.4169 20.25 45.3654 22.1587 45.3654 24.5Z" stroke="#D6A243" stroke-width="0.5"/>
<g filter="url(#filter3_i_527_1591)">
<path fill-rule="evenodd" clip-rule="evenodd" d="M56.3846 29C58.9336 29 61 26.9853 61 24.5C61 22.0147 58.9336 20 56.3846 20C53.8356 20 51.7692 22.0147 51.7692 24.5C51.7692 26.9853 53.8356 29 56.3846 29Z" fill="#61C454"/>
</g>
<path d="M60.75 24.5C60.75 26.8413 58.8015 28.75 56.3846 28.75C53.9677 28.75 52.0192 26.8413 52.0192 24.5C52.0192 22.1587 53.9677 20.25 56.3846 20.25C58.8015 20.25 60.75 22.1587 60.75 24.5Z" stroke="#58A942" stroke-width="0.5"/>
<g clip-path="url(#clip1_527_1591)">
<path d="M306.562 18C306.562 14.6863 309.249 12 312.562 12H683.563C686.876 12 689.562 14.6863 689.562 18V34C689.562 37.3137 686.876 40 683.563 40H312.562C309.249 40 306.562 37.3137 306.562 34V18Z" fill="white" fill-opacity="0.05"/>
<g clip-path="url(#clip2_527_1591)">
<path d="M451.773 29.9316H457.352C458.107 29.9316 458.477 29.5566 458.477 28.7363V24.4355C458.477 23.6973 458.172 23.3164 457.545 23.252V21.7754C457.545 19.5664 456.098 18.5 454.562 18.5C453.027 18.5 451.58 19.5664 451.58 21.7754V23.2812C451.006 23.3691 450.648 23.7441 450.648 24.4355V28.7363C450.648 29.5566 451.018 29.9316 451.773 29.9316ZM452.523 21.6523C452.523 20.1816 453.467 19.4023 454.562 19.4023C455.658 19.4023 456.602 20.1816 456.602 21.6523V23.2461L452.523 23.252V21.6523Z" fill="#9288B1"/>
<path d="M469.155 26.8115C469.155 27.0527 469.106 27.2791 469.009 27.4907C468.916 27.7023 468.782 27.8885 468.609 28.0493C468.435 28.2101 468.226 28.3371 467.98 28.4302C467.735 28.519 467.456 28.5635 467.143 28.5635C466.491 28.5635 465.979 28.39 465.606 28.043C465.234 27.696 465.031 27.2643 464.997 26.748H465.975C466.008 27.0062 466.121 27.222 466.311 27.3955C466.501 27.569 466.779 27.6558 467.143 27.6558C467.473 27.6558 467.729 27.5711 467.911 27.4019C468.093 27.2326 468.184 27.0358 468.184 26.8115C468.184 26.5957 468.107 26.4328 467.955 26.3228C467.803 26.2127 467.614 26.126 467.39 26.0625C467.166 25.999 466.92 25.9398 466.654 25.8848C466.391 25.8255 466.146 25.7409 465.917 25.6309C465.693 25.5166 465.505 25.3558 465.353 25.1484C465.2 24.9368 465.124 24.6449 465.124 24.2725C465.124 24.0482 465.171 23.8345 465.264 23.6313C465.361 23.4282 465.494 23.2484 465.664 23.0918C465.833 22.9352 466.036 22.8125 466.273 22.7236C466.514 22.6305 466.783 22.584 467.079 22.584C467.701 22.584 468.184 22.7469 468.526 23.0728C468.869 23.3986 469.057 23.8218 469.091 24.3423H468.114C468.08 24.0841 467.98 23.8789 467.815 23.7266C467.65 23.5742 467.405 23.498 467.079 23.498C466.783 23.498 466.546 23.5785 466.368 23.7393C466.19 23.8958 466.102 24.0736 466.102 24.2725C466.102 24.4883 466.178 24.6512 466.33 24.7612C466.482 24.8713 466.671 24.9601 466.895 25.0278C467.119 25.0913 467.363 25.1506 467.625 25.2056C467.892 25.2606 468.137 25.3452 468.361 25.4595C468.59 25.5695 468.778 25.7324 468.926 25.9482C469.079 26.1598 469.155 26.4476 469.155 26.8115ZM469.472 22.6475H470.513L472.272 27.1353L474.024 22.6475H475.065L472.532 29.0205C472.299 29.6087 472.054 30.0256 471.796 30.271C471.542 30.5207 471.224 30.6455 470.844 30.6455C470.793 30.6455 470.744 30.6434 470.698 30.6392C470.655 30.6349 470.613 30.6286 470.571 30.6201C470.528 30.6117 470.488 30.599 470.45 30.582V29.8013C470.746 29.8013 470.966 29.7357 471.11 29.6045C471.258 29.4733 471.385 29.2786 471.491 29.0205L471.751 28.373L469.472 22.6475ZM478.448 22.584C478.761 22.584 479.053 22.6475 479.324 22.7744C479.599 22.9014 479.841 23.0749 480.048 23.2949C480.255 23.515 480.418 23.7816 480.537 24.0947C480.659 24.4036 480.721 24.7464 480.721 25.123V28.5H479.75V25.123C479.75 24.8818 479.709 24.6618 479.629 24.4629C479.553 24.2598 479.449 24.0863 479.318 23.9424C479.187 23.7985 479.034 23.6885 478.861 23.6123C478.692 23.5361 478.51 23.498 478.315 23.498C477.854 23.498 477.479 23.6462 477.191 23.9424C476.904 24.2344 476.76 24.6279 476.76 25.123V28.5H475.782V22.6475H476.5L476.76 23.3013C476.883 23.1701 477.024 23.0537 477.185 22.9521C477.333 22.8548 477.511 22.7702 477.718 22.6982C477.926 22.6221 478.169 22.584 478.448 22.584ZM486.834 26.9385C486.736 27.1458 486.614 27.3511 486.466 27.5542C486.317 27.7531 486.144 27.9266 485.945 28.0747C485.746 28.2186 485.52 28.3371 485.266 28.4302C485.016 28.519 484.737 28.5635 484.428 28.5635C484.056 28.5635 483.702 28.4915 483.368 28.3477C483.034 28.1995 482.742 27.9943 482.492 27.7319C482.247 27.4653 482.052 27.1501 481.908 26.7861C481.768 26.4222 481.699 26.0181 481.699 25.5737C481.699 25.1336 481.768 24.7316 481.908 24.3677C482.052 24.0037 482.244 23.6906 482.486 23.4282C482.731 23.1616 483.017 22.9543 483.343 22.8062C483.668 22.658 484.009 22.584 484.365 22.584C484.72 22.584 485.054 22.6538 485.367 22.7935C485.685 22.9331 485.96 23.132 486.193 23.3901C486.43 23.644 486.616 23.9508 486.751 24.3105C486.891 24.6702 486.961 25.0701 486.961 25.5103C486.961 25.5949 486.956 25.6689 486.948 25.7324C486.94 25.7917 486.931 25.8424 486.923 25.8848C486.914 25.9355 486.906 25.9842 486.897 26.0308H482.74C482.756 26.2381 482.814 26.4412 482.911 26.6401C483.012 26.839 483.137 27.0125 483.285 27.1606C483.438 27.3088 483.613 27.4294 483.812 27.5225C484.015 27.6113 484.221 27.6558 484.428 27.6558C484.61 27.6558 484.771 27.6304 484.91 27.5796C485.054 27.5246 485.185 27.4632 485.304 27.3955C485.422 27.3278 485.52 27.2537 485.596 27.1733C485.676 27.0887 485.742 27.0104 485.793 26.9385H486.834ZM484.365 23.498C484.166 23.498 483.975 23.5404 483.793 23.625C483.616 23.7096 483.453 23.826 483.304 23.9741C483.161 24.1222 483.038 24.3 482.936 24.5073C482.839 24.7147 482.773 24.9411 482.74 25.1865H485.92C485.852 24.666 485.672 24.2555 485.38 23.9551C485.092 23.6504 484.754 23.498 484.365 23.498ZM490.789 23.5615H490.528C490.067 23.5615 489.693 23.7096 489.405 24.0059C489.117 24.2979 488.973 24.6914 488.973 25.1865V28.5H487.996V22.6475H488.713L488.973 23.3013C489.096 23.1701 489.238 23.0537 489.398 22.9521C489.547 22.8548 489.724 22.7702 489.932 22.6982C490.139 22.6221 490.382 22.584 490.662 22.584H490.789V23.5615ZM495.537 27.5225C495.423 27.6706 495.287 27.8018 495.131 27.916C494.991 28.0133 494.815 28.1022 494.604 28.1826C494.392 28.263 494.14 28.3032 493.848 28.3032C493.476 28.3032 493.127 28.2355 492.801 28.1001C492.475 27.9604 492.192 27.7658 491.95 27.5161C491.714 27.2622 491.525 26.9596 491.386 26.6084C491.25 26.2572 491.182 25.87 491.182 25.4468C491.182 25.0236 491.25 24.6364 491.386 24.2852C491.525 23.9297 491.714 23.6271 491.95 23.3774C492.192 23.1278 492.473 22.9331 492.795 22.7935C493.121 22.6538 493.472 22.584 493.848 22.584C494.145 22.584 494.399 22.6221 494.61 22.6982C494.822 22.7702 494.995 22.8548 495.131 22.9521C495.287 23.0579 495.423 23.1743 495.537 23.3013L495.797 22.6475H496.508V28.3032C496.508 28.6418 496.445 28.957 496.318 29.249C496.195 29.5452 496.019 29.8013 495.791 30.0171C495.567 30.2371 495.294 30.4064 494.972 30.5249C494.655 30.6476 494.301 30.709 493.912 30.709C493.573 30.709 493.269 30.6624 492.998 30.5693C492.731 30.4805 492.499 30.3556 492.3 30.1948C492.101 30.034 491.934 29.8478 491.798 29.6362C491.663 29.4246 491.565 29.1982 491.506 28.957H492.477C492.575 29.1813 492.731 29.3781 492.947 29.5474C493.163 29.7166 493.485 29.8013 493.912 29.8013C494.407 29.8013 494.801 29.6574 495.093 29.3696C495.389 29.0861 495.537 28.7306 495.537 28.3032V27.5225ZM492.154 25.4468C492.154 25.743 492.198 26.0096 492.287 26.2466C492.38 26.4836 492.507 26.6867 492.668 26.856C492.829 27.0252 493.015 27.1585 493.226 27.2559C493.438 27.349 493.666 27.3955 493.912 27.3955C494.153 27.3955 494.38 27.349 494.591 27.2559C494.803 27.1585 494.989 27.0252 495.15 26.856C495.311 26.6867 495.435 26.4836 495.524 26.2466C495.617 26.0054 495.664 25.7388 495.664 25.4468C495.664 25.1506 495.617 24.884 495.524 24.647C495.435 24.4058 495.311 24.2026 495.15 24.0376C494.989 23.8683 494.803 23.7371 494.591 23.644C494.38 23.5467 494.153 23.498 493.912 23.498C493.671 23.498 493.442 23.5467 493.226 23.644C493.015 23.7371 492.829 23.8683 492.668 24.0376C492.507 24.2026 492.38 24.4058 492.287 24.647C492.198 24.884 492.154 25.1506 492.154 25.4468ZM497.156 22.6475H498.197L499.955 27.1353L501.707 22.6475H502.748L500.215 29.0205C499.983 29.6087 499.737 30.0256 499.479 30.271C499.225 30.5207 498.908 30.6455 498.527 30.6455C498.476 30.6455 498.427 30.6434 498.381 30.6392C498.339 30.6349 498.296 30.6286 498.254 30.6201C498.212 30.6117 498.171 30.599 498.133 30.582V29.8013C498.43 29.8013 498.65 29.7357 498.794 29.6045C498.942 29.4733 499.069 29.2786 499.174 29.0205L499.435 28.373L497.156 22.6475ZM507.3 26.8115C507.3 27.0527 507.251 27.2791 507.154 27.4907C507.061 27.7023 506.927 27.8885 506.754 28.0493C506.58 28.2101 506.371 28.3371 506.125 28.4302C505.88 28.519 505.601 28.5635 505.287 28.5635C504.636 28.5635 504.124 28.39 503.751 28.043C503.379 27.696 503.176 27.2643 503.142 26.748H504.119C504.153 27.0062 504.265 27.222 504.456 27.3955C504.646 27.569 504.923 27.6558 505.287 27.6558C505.618 27.6558 505.874 27.5711 506.055 27.4019C506.237 27.2326 506.328 27.0358 506.328 26.8115C506.328 26.5957 506.252 26.4328 506.1 26.3228C505.948 26.2127 505.759 26.126 505.535 26.0625C505.311 25.999 505.065 25.9398 504.799 25.8848C504.536 25.8255 504.291 25.7409 504.062 25.6309C503.838 25.5166 503.65 25.3558 503.497 25.1484C503.345 24.9368 503.269 24.6449 503.269 24.2725C503.269 24.0482 503.315 23.8345 503.409 23.6313C503.506 23.4282 503.639 23.2484 503.808 23.0918C503.978 22.9352 504.181 22.8125 504.418 22.7236C504.659 22.6305 504.928 22.584 505.224 22.584C505.846 22.584 506.328 22.7469 506.671 23.0728C507.014 23.3986 507.202 23.8218 507.236 24.3423H506.259C506.225 24.0841 506.125 23.8789 505.96 23.7266C505.795 23.5742 505.55 23.498 505.224 23.498C504.928 23.498 504.691 23.5785 504.513 23.7393C504.335 23.8958 504.246 24.0736 504.246 24.2725C504.246 24.4883 504.323 24.6512 504.475 24.7612C504.627 24.8713 504.816 24.9601 505.04 25.0278C505.264 25.0913 505.507 25.1506 505.77 25.2056C506.036 25.2606 506.282 25.3452 506.506 25.4595C506.735 25.5695 506.923 25.7324 507.071 25.9482C507.223 26.1598 507.3 26.4476 507.3 26.8115ZM507.947 27.916C507.947 27.7171 508.004 27.5584 508.119 27.4399C508.237 27.3215 508.396 27.2622 508.595 27.2622C508.794 27.2622 508.95 27.3215 509.065 27.4399C509.183 27.5584 509.242 27.7171 509.242 27.916C509.242 28.1149 509.183 28.2736 509.065 28.3921C508.95 28.5063 508.794 28.5635 508.595 28.5635C508.396 28.5635 508.237 28.5063 508.119 28.3921C508.004 28.2736 507.947 28.1149 507.947 27.916ZM514.771 28.5H513.794V23.5615H511.452V28.5H510.48V23.5615H509.763V22.6475H510.48V22.1968C510.48 21.9006 510.525 21.634 510.614 21.397C510.707 21.1558 510.832 20.9526 510.988 20.7876C511.145 20.6183 511.325 20.4871 511.528 20.394C511.731 20.2967 511.945 20.248 512.169 20.248C512.266 20.248 512.351 20.2544 512.423 20.2671C512.495 20.2798 512.558 20.2946 512.613 20.3115C512.664 20.3369 512.71 20.3581 512.753 20.375V21.2192C512.727 21.2108 512.698 21.2023 512.664 21.1938C512.639 21.1854 512.603 21.1769 512.556 21.1685C512.514 21.16 512.471 21.1558 512.429 21.1558C512.133 21.1558 511.896 21.2467 511.718 21.4287C511.54 21.6107 511.452 21.8667 511.452 22.1968V22.6475H514.771V28.5ZM513.667 20.9971C513.667 20.8151 513.724 20.667 513.838 20.5527C513.957 20.4342 514.103 20.375 514.276 20.375C514.458 20.375 514.606 20.4342 514.721 20.5527C514.839 20.667 514.898 20.8151 514.898 20.9971C514.898 21.1706 514.839 21.3166 514.721 21.4351C514.606 21.5535 514.458 21.6128 514.276 21.6128C514.103 21.6128 513.957 21.5535 513.838 21.4351C513.724 21.3166 513.667 21.1706 513.667 20.9971ZM518.859 22.584C519.173 22.584 519.465 22.6475 519.735 22.7744C520.011 22.9014 520.252 23.0749 520.459 23.2949C520.666 23.515 520.829 23.7816 520.948 24.0947C521.071 24.4036 521.132 24.7464 521.132 25.123V28.5H520.161V25.123C520.161 24.8818 520.121 24.6618 520.04 24.4629C519.964 24.2598 519.86 24.0863 519.729 23.9424C519.598 23.7985 519.446 23.6885 519.272 23.6123C519.103 23.5361 518.921 23.498 518.726 23.498C518.265 23.498 517.89 23.6462 517.603 23.9424C517.315 24.2344 517.171 24.6279 517.171 25.123V28.5H516.193V22.6475H516.911L517.171 23.3013C517.294 23.1701 517.435 23.0537 517.596 22.9521C517.744 22.8548 517.922 22.7702 518.129 22.6982C518.337 22.6221 518.58 22.584 518.859 22.584ZM524.706 22.584C525.028 22.584 525.324 22.639 525.595 22.749C525.87 22.8548 526.105 22.9987 526.299 23.1807C526.494 23.3626 526.644 23.5763 526.75 23.8218C526.86 24.063 526.915 24.3232 526.915 24.6025V28.5H526.204L525.944 27.8525C525.813 27.9922 525.664 28.1128 525.499 28.2144C525.351 28.3117 525.169 28.3942 524.953 28.4619C524.738 28.5296 524.482 28.5635 524.185 28.5635C523.889 28.5635 523.623 28.519 523.386 28.4302C523.149 28.3371 522.946 28.2101 522.776 28.0493C522.607 27.8885 522.474 27.7023 522.376 27.4907C522.283 27.2791 522.237 27.0527 522.237 26.8115C522.237 26.5322 522.292 26.2783 522.402 26.0498C522.516 25.8213 522.711 25.6224 522.986 25.4531C523.265 25.2839 523.646 25.1548 524.128 25.0659C524.611 24.9728 525.216 24.9263 525.944 24.9263V24.6025C525.944 24.3063 525.827 24.0482 525.595 23.8281C525.366 23.6081 525.07 23.498 524.706 23.498C524.342 23.498 524.073 23.5742 523.9 23.7266C523.726 23.8747 523.606 24.0799 523.538 24.3423H522.497C522.531 24.1011 522.605 23.8747 522.719 23.6631C522.833 23.4473 522.984 23.259 523.17 23.0981C523.356 22.9373 523.576 22.8125 523.83 22.7236C524.084 22.6305 524.376 22.584 524.706 22.584ZM524.185 27.6558C524.444 27.6558 524.681 27.6156 524.896 27.5352C525.116 27.4505 525.303 27.3447 525.455 27.2178C525.607 27.0866 525.726 26.9406 525.81 26.7798C525.899 26.619 525.944 26.4561 525.944 26.291V25.834C525.355 25.834 524.884 25.8594 524.528 25.9102C524.173 25.9567 523.896 26.0265 523.697 26.1196C523.502 26.2085 523.373 26.3164 523.309 26.4434C523.246 26.5661 523.214 26.71 523.214 26.875C523.214 27.0739 523.301 27.2537 523.474 27.4146C523.652 27.5754 523.889 27.6558 524.185 27.6558ZM530.946 22.584C531.259 22.584 531.551 22.6475 531.822 22.7744C532.097 22.9014 532.338 23.0749 532.546 23.2949C532.753 23.515 532.916 23.7816 533.034 24.0947C533.157 24.4036 533.218 24.7464 533.218 25.123V28.5H532.247V25.123C532.247 24.8818 532.207 24.6618 532.127 24.4629C532.05 24.2598 531.947 24.0863 531.816 23.9424C531.684 23.7985 531.532 23.6885 531.359 23.6123C531.189 23.5361 531.007 23.498 530.813 23.498C530.351 23.498 529.977 23.6462 529.689 23.9424C529.401 24.2344 529.257 24.6279 529.257 25.123V28.5H528.28V22.6475H528.997L529.257 23.3013C529.38 23.1701 529.522 23.0537 529.683 22.9521C529.831 22.8548 530.009 22.7702 530.216 22.6982C530.423 22.6221 530.667 22.584 530.946 22.584ZM536.926 23.498C536.701 23.498 536.481 23.5488 536.266 23.6504C536.054 23.7477 535.866 23.8874 535.701 24.0693C535.536 24.2513 535.404 24.4692 535.307 24.7231C535.214 24.9771 535.167 25.2606 535.167 25.5737C535.167 25.8869 535.214 26.1725 535.307 26.4307C535.404 26.6846 535.536 26.9025 535.701 27.0845C535.866 27.2664 536.054 27.4082 536.266 27.5098C536.481 27.6071 536.701 27.6558 536.926 27.6558C537.116 27.6558 537.296 27.6219 537.465 27.5542C537.634 27.4823 537.785 27.3913 537.916 27.2812C538.051 27.167 538.166 27.0358 538.259 26.8877C538.356 26.7396 538.432 26.583 538.487 26.418H539.458C539.391 26.7142 539.283 26.9935 539.135 27.2559C538.987 27.514 538.802 27.7404 538.582 27.9351C538.362 28.1297 538.111 28.2842 537.827 28.3984C537.548 28.5085 537.247 28.5635 536.926 28.5635C536.553 28.5635 536.2 28.4915 535.866 28.3477C535.531 28.1995 535.239 27.9943 534.99 27.7319C534.744 27.4653 534.55 27.1501 534.406 26.7861C534.266 26.4222 534.196 26.0181 534.196 25.5737C534.196 25.1336 534.266 24.7316 534.406 24.3677C534.55 24.0037 534.744 23.6906 534.99 23.4282C535.239 23.1616 535.531 22.9543 535.866 22.8062C536.2 22.658 536.553 22.584 536.926 22.584C537.247 22.584 537.548 22.6411 537.827 22.7554C538.111 22.8654 538.362 23.0199 538.582 23.2188C538.802 23.4134 538.987 23.6398 539.135 23.8979C539.283 24.1561 539.391 24.4333 539.458 24.7295H538.487C538.436 24.5645 538.362 24.41 538.265 24.2661C538.168 24.118 538.051 23.9868 537.916 23.8726C537.785 23.7583 537.634 23.6673 537.465 23.5996C537.296 23.5319 537.116 23.498 536.926 23.498ZM545.178 26.9385C545.081 27.1458 544.958 27.3511 544.81 27.5542C544.662 27.7531 544.488 27.9266 544.289 28.0747C544.09 28.2186 543.864 28.3371 543.61 28.4302C543.36 28.519 543.081 28.5635 542.772 28.5635C542.4 28.5635 542.046 28.4915 541.712 28.3477C541.378 28.1995 541.086 27.9943 540.836 27.7319C540.591 27.4653 540.396 27.1501 540.252 26.7861C540.112 26.4222 540.043 26.0181 540.043 25.5737C540.043 25.1336 540.112 24.7316 540.252 24.3677C540.396 24.0037 540.589 23.6906 540.83 23.4282C541.075 23.1616 541.361 22.9543 541.687 22.8062C542.013 22.658 542.353 22.584 542.709 22.584C543.064 22.584 543.398 22.6538 543.712 22.7935C544.029 22.9331 544.304 23.132 544.537 23.3901C544.774 23.644 544.96 23.9508 545.095 24.3105C545.235 24.6702 545.305 25.0701 545.305 25.5103C545.305 25.5949 545.301 25.6689 545.292 25.7324C545.284 25.7917 545.275 25.8424 545.267 25.8848C545.258 25.9355 545.25 25.9842 545.241 26.0308H541.084C541.101 26.2381 541.158 26.4412 541.255 26.6401C541.357 26.839 541.481 27.0125 541.63 27.1606C541.782 27.3088 541.957 27.4294 542.156 27.5225C542.36 27.6113 542.565 27.6558 542.772 27.6558C542.954 27.6558 543.115 27.6304 543.255 27.5796C543.398 27.5246 543.53 27.4632 543.648 27.3955C543.767 27.3278 543.864 27.2537 543.94 27.1733C544.02 27.0887 544.086 27.0104 544.137 26.9385H545.178ZM542.709 23.498C542.51 23.498 542.319 23.5404 542.137 23.625C541.96 23.7096 541.797 23.826 541.649 23.9741C541.505 24.1222 541.382 24.3 541.28 24.5073C541.183 24.7147 541.117 24.9411 541.084 25.1865H544.264C544.196 24.666 544.016 24.2555 543.724 23.9551C543.436 23.6504 543.098 23.498 542.709 23.498Z" fill="#9288B1"/>
</g>
<path d="M677.846 25.6152C677.992 25.6152 678.104 25.5684 678.186 25.4805L680.6 23.0547C680.705 22.9551 680.746 22.8379 680.746 22.7031C680.746 22.5742 680.693 22.4453 680.6 22.3516L678.186 19.9023C678.104 19.8086 677.986 19.7617 677.846 19.7617C677.582 19.7617 677.383 19.9727 677.383 20.2422C677.383 20.3652 677.43 20.4824 677.512 20.5762L679.076 22.1113C678.742 22.0527 678.402 22.0176 678.062 22.0176C675.191 22.0176 672.883 24.3203 672.883 27.1914C672.883 30.0684 675.191 32.377 678.062 32.377C680.934 32.377 683.236 30.0684 683.236 27.1914C683.236 26.9102 683.037 26.7051 682.75 26.7051C682.475 26.7051 682.293 26.9102 682.293 27.1914C682.293 29.5469 680.412 31.4336 678.062 31.4336C675.713 31.4336 673.826 29.5469 673.826 27.1914C673.826 24.8418 675.713 22.9609 678.062 22.9609C678.508 22.9609 678.918 22.9961 679.27 23.0723L677.518 24.8125C677.43 24.9062 677.383 25.0234 677.383 25.1465C677.383 25.416 677.582 25.6152 677.846 25.6152Z" fill="#797979"/>
</g>
<g opacity="0.51" filter="url(#filter4_f_527_1591)">
<ellipse cx="7" cy="428" rx="66" ry="76" fill="#DA7895"/>
</g>
<g opacity="0.41" filter="url(#filter5_f_527_1591)">
<ellipse cx="1028.5" cy="212" rx="89.5" ry="93" fill="#0092E7"/>
</g>
<g opacity="0.44" filter="url(#filter6_f_527_1591)">
<path d="M902.069 1196.29C1136 1141.22 1282.61 969.635 1229.53 813.043C1176.45 656.451 943.78 574.149 709.847 629.216C475.915 684.283 329.306 855.867 382.386 1012.46C435.467 1169.05 668.136 1251.35 902.069 1196.29Z" fill="#D654F7" fill-opacity="0.52"/>
</g>
<g opacity="0.44" filter="url(#filter7_f_527_1591)">
<path d="M581.251 645.761C387.208 690.188 269.308 844.376 317.914 990.151C366.519 1135.92 563.224 1218.08 757.267 1173.66C951.309 1129.23 1069.21 975.041 1020.6 829.267C971.999 683.493 775.293 601.335 581.251 645.761Z" fill="#D654F7" fill-opacity="0.52"/>
</g>
<g filter="url(#filter8_f_527_1591)">
<path d="M775.629 677.515C715.424 643.19 646.608 660.334 621.924 715.808C597.239 771.281 626.035 844.077 686.239 878.401C746.444 912.726 815.261 895.582 839.945 840.108C864.629 784.635 835.834 711.839 775.629 677.515Z" fill="#FF994F" fill-opacity="0.7"/>
</g>
</g>
</g>
<defs>
<filter id="filter0_b_527_1591" x="-81" y="-81" width="1158" height="841" filterUnits="userSpaceOnUse" color-interpolation-filters="sRGB">
<feFlood flood-opacity="0" result="BackgroundImageFix"/>
<feGaussianBlur in="BackgroundImage" stdDeviation="40.5"/>
<feComposite in2="SourceAlpha" operator="in" result="effect1_backgroundBlur_527_1591"/>
<feBlend mode="normal" in="SourceGraphic" in2="effect1_backgroundBlur_527_1591" result="shape"/>
</filter>
<filter id="filter1_i_527_1591" x="21" y="20" width="9.23077" height="9" filterUnits="userSpaceOnUse" color-interpolation-filters="sRGB">
<feFlood flood-opacity="0" result="BackgroundImageFix"/>
<feBlend mode="normal" in="SourceGraphic" in2="BackgroundImageFix" result="shape"/>
<feColorMatrix in="SourceAlpha" type="matrix" values="0 0 0 0 0 0 0 0 0 0 0 0 0 0 0 0 0 0 127 0" result="hardAlpha"/>
<feOffset/>
<feGaussianBlur stdDeviation="3"/>
<feComposite in2="hardAlpha" operator="arithmetic" k2="-1" k3="1"/>
<feColorMatrix type="matrix" values="0 0 0 0 0.92549 0 0 0 0 0.427451 0 0 0 0 0.384314 0 0 0 1 0"/>
<feBlend mode="normal" in2="shape" result="effect1_innerShadow_527_1591"/>
</filter>
<filter id="filter2_i_527_1591" x="36.3846" y="20" width="9.23077" height="9" filterUnits="userSpaceOnUse" color-interpolation-filters="sRGB">
<feFlood flood-opacity="0" result="BackgroundImageFix"/>
<feBlend mode="normal" in="SourceGraphic" in2="BackgroundImageFix" result="shape"/>
<feColorMatrix in="SourceAlpha" type="matrix" values="0 0 0 0 0 0 0 0 0 0 0 0 0 0 0 0 0 0 127 0" result="hardAlpha"/>
<feOffset/>
<feGaussianBlur stdDeviation="3"/>
<feComposite in2="hardAlpha" operator="arithmetic" k2="-1" k3="1"/>
<feColorMatrix type="matrix" values="0 0 0 0 0.960784 0 0 0 0 0.768627 0 0 0 0 0.317647 0 0 0 1 0"/>
<feBlend mode="normal" in2="shape" result="effect1_innerShadow_527_1591"/>
</filter>
<filter id="filter3_i_527_1591" x="51.7692" y="20" width="9.23077" height="9" filterUnits="userSpaceOnUse" color-interpolation-filters="sRGB">
<feFlood flood-opacity="0" result="BackgroundImageFix"/>
<feBlend mode="normal" in="SourceGraphic" in2="BackgroundImageFix" result="shape"/>
<feColorMatrix in="SourceAlpha" type="matrix" values="0 0 0 0 0 0 0 0 0 0 0 0 0 0 0 0 0 0 127 0" result="hardAlpha"/>
<feOffset/>
<feGaussianBlur stdDeviation="3"/>
<feComposite in2="hardAlpha" operator="arithmetic" k2="-1" k3="1"/>
<feColorMatrix type="matrix" values="0 0 0 0 0.407843 0 0 0 0 0.8 0 0 0 0 0.345098 0 0 0 1 0"/>
<feBlend mode="normal" in2="shape" result="effect1_innerShadow_527_1591"/>
</filter>
<filter id="filter4_f_527_1591" x="-219" y="192" width="452" height="472" filterUnits="userSpaceOnUse" color-interpolation-filters="sRGB">
<feFlood flood-opacity="0" result="BackgroundImageFix"/>
<feBlend mode="normal" in="SourceGraphic" in2="BackgroundImageFix" result="shape"/>
<feGaussianBlur stdDeviation="80" result="effect1_foregroundBlur_527_1591"/>
</filter>
<filter id="filter5_f_527_1591" x="829" y="9" width="399" height="406" filterUnits="userSpaceOnUse" color-interpolation-filters="sRGB">
<feFlood flood-opacity="0" result="BackgroundImageFix"/>
<feBlend mode="normal" in="SourceGraphic" in2="BackgroundImageFix" result="shape"/>
<feGaussianBlur stdDeviation="55" result="effect1_foregroundBlur_527_1591"/>
</filter>
<filter id="filter6_f_527_1591" x="-58.4759" y="182.113" width="1728.87" height="1461.28" filterUnits="userSpaceOnUse" color-interpolation-filters="sRGB">
<feFlood flood-opacity="0" result="BackgroundImageFix"/>
<feBlend mode="normal" in="SourceGraphic" in2="BackgroundImageFix" result="shape"/>
<feGaussianBlur stdDeviation="215" result="effect1_foregroundBlur_527_1591"/>
</filter>
<filter id="filter7_f_527_1591" x="-123.027" y="203.703" width="1584.57" height="1412.01" filterUnits="userSpaceOnUse" color-interpolation-filters="sRGB">
<feFlood flood-opacity="0" result="BackgroundImageFix"/>
<feBlend mode="normal" in="SourceGraphic" in2="BackgroundImageFix" result="shape"/>
<feGaussianBlur stdDeviation="215" result="effect1_foregroundBlur_527_1591"/>
</filter>
<filter id="filter8_f_527_1591" x="233.086" y="279.824" width="995.697" height="996.268" filterUnits="userSpaceOnUse" color-interpolation-filters="sRGB">
<feFlood flood-opacity="0" result="BackgroundImageFix"/>
<feBlend mode="normal" in="SourceGraphic" in2="BackgroundImageFix" result="shape"/>
<feGaussianBlur stdDeviation="190" result="effect1_foregroundBlur_527_1591"/>
</filter>
<radialGradient id="paint0_radial_527_1591" cx="0" cy="0" r="1" gradientUnits="userSpaceOnUse" gradientTransform="translate(498 55.2932) rotate(90) scale(336.182 493.134)">
<stop stop-color="#B260E6" stop-opacity="0.47"/>
<stop offset="1" stop-opacity="0"/>
</radialGradient>
<clipPath id="clip0_527_1591">
<path d="M0 8.00001C0 3.58173 3.58172 0 8 0H988C992.418 0 996 3.58172 996 8V671C996 675.418 992.418 679 988 679H8.00001C3.58174 679 0 675.418 0 671V8.00001Z" fill="white"/>
</clipPath>
<clipPath id="clip1_527_1591">
<rect width="466.875" height="28" fill="white" transform="translate(264.562 12)"/>
</clipPath>
<clipPath id="clip2_527_1591">
<rect x="450.648" y="18.5" width="95.8281" height="15" fill="white"/>
</clipPath>
</defs>
</svg>
