<svg width="16" height="13" viewBox="0 0 16 13" fill="none" xmlns="http://www.w3.org/2000/svg">
<path d="M16 12.8148L14.7895 11.6651C14.6445 11.5681 14.5713 11.3947 14.6032 11.2238V1.83069C14.5729 1.65532 14.645 1.47803 14.7895 1.37301L15.9945 0.0381398V0H11.7056L8.47382 7.96023L4.80384 3.6293e-05H0.421772V0.0381761L1.64328 1.61275C1.85426 1.87579 1.95617 2.20911 1.92811 2.54445V9.355C1.9781 9.76539 1.90778 10.1813 1.72543 10.5537L0 12.8148V12.8529H4.57925V12.8148L2.85381 10.5591C2.67012 10.1852 2.59976 9.76719 2.65115 9.355V3.19281C2.71139 3.35082 2.73879 3.36716 2.83192 3.60145L7.12086 13H7.17016L11.3112 2.78417C11.2564 3.14377 11.2564 3.56331 11.2564 3.87388V11.2238C11.2865 11.3897 11.2235 11.5587 11.0921 11.6651L9.85964 12.8148V12.8529H16V12.8148Z" fill="white"/>
</svg>
