<svg width="19" height="15" viewBox="0 0 19 15" fill="none" xmlns="http://www.w3.org/2000/svg">
<path d="M1.16484 6.53254L12.4825 2.08029C13.5997 1.61651 17.3884 0.132425 17.3884 0.132425C17.3884 0.132425 19.1371 -0.516863 18.9914 1.05998C18.9428 1.70927 18.5542 3.98177 18.1656 6.43979L16.9513 13.7211C16.9513 13.7211 16.8541 14.7878 16.0284 14.9733C15.2026 15.1588 13.8426 14.324 13.5997 14.1385C13.4054 13.9994 9.95667 11.9124 8.69376 10.892C8.35374 10.6138 7.96515 10.0572 8.74233 9.40796C10.491 7.8775 12.5797 5.97601 13.8426 4.77019C14.4255 4.21366 15.0083 2.91509 12.5797 4.49193L5.73077 8.89781C5.73077 8.89781 4.95359 9.36158 3.49638 8.94418C2.03917 8.52679 0.33909 7.97025 0.33909 7.97025C0.33909 7.97025 -0.826678 7.27459 1.16484 6.53254Z" fill="white"/>
</svg>
