<svg width="208" height="20" viewBox="0 0 208 20" fill="none" xmlns="http://www.w3.org/2000/svg">
<path d="M7.65625 14.8148C5.75195 14.8148 4.02344 14.2321 2.65625 13.1358C0.947265 11.763 0 9.7284 0 7.40741C0 3.11111 3.22266 0 7.67578 0C10.0391 0 12.0703 0.869136 13.4082 2.43951L13.4863 2.53827C13.6133 2.68642 13.6035 2.91358 13.457 3.05185L11.4551 4.91852C11.3867 4.98766 11.2891 5.01728 11.1816 5.01728C11.084 5.00741 10.9863 4.9679 10.9277 4.88889C10.0879 3.91111 9.04297 3.41728 7.82227 3.41728C5.51758 3.41728 3.89648 5.05679 3.89648 7.39753C3.89648 8.8 4.45313 9.96543 5.47852 10.6765C6.13281 11.1407 6.94336 11.3778 7.8418 11.3778C9.07227 11.3778 10.1172 10.8741 10.9473 9.8963C11.0156 9.81729 11.1035 9.7679 11.2012 9.7679C11.2988 9.75803 11.3965 9.79753 11.4746 9.86667L13.4766 11.7333C13.5547 11.8025 13.5938 11.9012 13.5938 12C13.5938 12.0889 13.5645 12.1778 13.5059 12.2469C13.5059 12.2568 13.4961 12.2568 13.4961 12.2568C12.1484 13.9062 10.0781 14.8148 7.65625 14.8148ZM7.67578 0.730864C3.65234 0.730864 0.742187 3.5358 0.742187 7.39753C0.742187 9.49136 1.58203 11.3185 3.125 12.5432C4.35547 13.5309 5.92774 14.0543 7.66602 14.0543C9.76563 14.0543 11.5039 13.3531 12.7051 12.0296L11.2402 10.6667C10.3027 11.6346 9.16016 12.1284 7.83203 12.1284C6.78711 12.1284 5.83008 11.842 5.04883 11.2889C3.84766 10.4395 3.1543 9.02716 3.1543 7.39753C3.1543 4.61235 5.07812 2.66667 7.83203 2.66667C9.15039 2.66667 10.293 3.15062 11.2305 4.10864L12.6953 2.7358C11.4941 1.4321 9.76563 0.730864 7.67578 0.730864Z" fill="white"/>
<path d="M13.1348 2.67635C11.9238 1.71832 10.3516 1.20474 8.55469 1.20474C4.36524 1.20474 1.25 4.13808 1.25 8.24672C1.25 10.0541 1.85547 11.6443 2.90039 12.8492C1.33789 11.5949 0.380859 9.67882 0.380859 7.40721C0.380859 3.30844 3.49609 0.365234 7.68555 0.365234C9.95117 0.365234 11.8652 1.18499 13.1348 2.67635Z" fill="white"/>
<path d="M12.0898 10.9831L13.2031 12.0201C11.9336 13.5806 10 14.43 7.66602 14.43C5.80078 14.43 4.15039 13.8473 2.90039 12.83C1.86524 11.6251 1.25 10.0448 1.25 8.22752C1.25 4.12876 4.36524 1.18555 8.55469 1.18555C10.3613 1.18555 11.9336 1.69913 13.1348 2.65715C13.1641 2.68678 13.1934 2.72629 13.2129 2.75592L11.2207 4.64234C10.3125 3.59542 9.17969 3.05221 7.8418 3.05221C5.32227 3.05221 3.53516 4.83987 3.53516 7.40777C3.53516 8.96826 4.18945 10.2325 5.27344 10.993C6.03516 12.0004 7.24609 12.6028 8.71094 12.6028C10.0488 12.593 11.1816 12.0497 12.0898 10.9831Z" fill="white"/>
<path d="M13.2129 12.0091C13.2031 12.019 13.2031 12.019 13.2031 12.0289L12.0898 10.9919C11.1816 12.0585 10.0488 12.6017 8.71094 12.6017C7.24609 12.6017 6.03516 11.9993 5.27344 10.9919C5.97656 11.4857 6.85547 11.7622 7.8418 11.7622C9.18945 11.7622 10.3223 11.219 11.2207 10.1523L13.2129 12.0091Z" fill="white"/>
<path d="M12.3438 5.18555C14.248 5.18555 15.9766 5.76826 17.3438 6.86456C19.0527 8.2374 20 10.272 20 12.593C20 16.8893 16.7773 20.0004 12.3242 20.0004C9.96094 20.0004 7.92969 19.1312 6.5918 17.5609L6.51367 17.4621C6.38672 17.3139 6.39649 17.0868 6.54297 16.9485L8.54492 15.0818C8.61328 15.0127 8.71094 14.9831 8.81836 14.9831C8.91602 14.993 9.01367 15.0325 9.07227 15.1115C9.91211 16.0893 10.957 16.5831 12.1777 16.5831C14.4922 16.5831 16.1133 14.9436 16.1133 12.6028C16.1133 11.2004 15.5566 10.0349 14.5313 9.32382C13.877 8.85962 13.0664 8.62259 12.168 8.62259C10.9375 8.62259 9.89258 9.12629 9.0625 10.1041C8.99414 10.1831 8.90625 10.2325 8.80859 10.2325C8.71094 10.2423 8.61328 10.2028 8.53516 10.1337L6.5332 8.26703C6.45508 8.19789 6.41602 8.09913 6.41602 8.00036C6.41602 7.91147 6.44531 7.82258 6.50391 7.75345C6.50391 7.74357 6.51367 7.74357 6.51367 7.74357C7.86133 6.09419 9.93164 5.18555 12.3438 5.18555ZM12.334 19.2596C16.3574 19.2596 19.2676 16.4547 19.2676 12.593C19.2676 10.4991 18.4277 8.67197 16.8848 7.44728C15.6543 6.45962 14.082 5.93616 12.3438 5.93616C10.2441 5.93616 8.50586 6.6374 7.30469 7.96086L8.76953 9.32382C9.70703 8.35592 10.8496 7.86209 12.1777 7.86209C13.2227 7.86209 14.1797 8.14851 14.9609 8.7016C16.1621 9.55098 16.8555 10.9633 16.8555 12.593C16.8555 15.3781 14.9316 17.3238 12.1777 17.3238C10.8594 17.3238 9.7168 16.8399 8.7793 15.8818L7.31445 17.2547C8.51563 18.5683 10.2441 19.2596 12.334 19.2596Z" fill="white"/>
<path d="M6.875 17.3232C8.08594 18.2813 9.6582 18.7948 11.4551 18.7948C15.6445 18.7948 18.7598 15.8615 18.7598 11.7529C18.7598 9.94545 18.1543 8.35533 17.1094 7.15039C18.6719 8.40471 19.6289 10.3208 19.6289 12.5924C19.6289 16.6911 16.5137 19.6343 12.3242 19.6343C10.0488 19.6343 8.14453 18.8146 6.875 17.3232Z" fill="white"/>
<path d="M7.91992 9.01723L6.80664 7.98019C8.07617 6.4197 10.0098 5.57031 12.3437 5.57031C14.209 5.57031 15.8594 6.15303 17.1094 7.17031C18.1445 8.37525 18.7598 9.9555 18.7598 11.7728C18.7598 15.8715 15.6445 18.8148 11.4551 18.8148C9.64844 18.8148 8.07617 18.3012 6.875 17.3432C6.8457 17.3135 6.81641 17.274 6.79688 17.2444L8.79883 15.3777C9.70703 16.4246 10.8398 16.9678 12.1777 16.9678C14.6973 16.9678 16.4844 15.1802 16.4844 12.6123C16.4844 11.0518 15.8301 9.7876 14.7461 9.0271C13.9844 7.99994 12.7637 7.39747 11.3086 7.39747C9.96094 7.39747 8.82813 7.94068 7.91992 9.01723Z" fill="white"/>
<path d="M6.79688 7.99103C6.80664 7.98115 6.80664 7.98115 6.80664 7.97128L7.91992 9.00831C8.82813 7.94165 9.96094 7.39844 11.2988 7.39844C12.7637 7.39844 13.9746 8.00091 14.7363 9.00831C14.0332 8.51449 13.1543 8.23794 12.168 8.23794C10.8203 8.23794 9.6875 8.78115 8.78906 9.84782L6.79688 7.99103Z" fill="white"/>
<path d="M32 10.0009C32 6.22122 34.8935 3.52539 38.8163 3.52539C40.9864 3.52539 42.7948 4.30356 43.9911 5.74875L42.1271 7.47185C41.2924 6.49913 40.2352 5.99888 38.9554 5.99888C36.6184 5.99888 34.9491 7.63861 34.9491 10.0009C34.9491 12.3632 36.6184 14.003 38.9554 14.003C40.2074 14.003 41.2646 13.5027 42.1271 12.5022L43.9911 14.2253C42.7948 15.6705 40.9864 16.4765 38.8163 16.4765C34.8935 16.4765 32 13.7806 32 10.0009Z" fill="white"/>
<path d="M53.9514 13.5864H48.1367L47.0238 16.2822H44.0469L49.639 3.74805H52.5047L58.1247 16.2822H55.0643L53.9514 13.5864ZM53.0611 11.3631L51.0579 6.55504L49.0548 11.3631H53.0611Z" fill="white"/>
<path d="M70.3382 8.27859C70.3382 11.0856 68.2516 12.8087 64.8852 12.8087H62.3534V16.2549H59.4321V3.7207H64.8574C68.2238 3.7207 70.3382 5.44381 70.3382 8.27859ZM67.3891 8.27859C67.3891 6.88899 66.4988 6.08302 64.7183 6.08302H62.3534V10.4464H64.7183C66.4988 10.4464 67.3891 9.6404 67.3891 8.27859Z" fill="white"/>
<path d="M82.1069 13.9204V16.2549H72.3693V3.7207H81.8565V6.05523H75.2627V8.77885H81.1053V11.03H75.2627V13.9204H82.1069Z" fill="white"/>
<path d="M84.444 3.7207H87.3374V13.8926H93.6251V16.2549H84.4161V3.7207H84.444Z" fill="white"/>
<path d="M95.2666 3.7207H98.16V13.8926H104.448V16.2549H95.2388V3.7207H95.2666Z" fill="white"/>
<path d="M114.491 13.5864H108.649L107.536 16.2822H104.559L110.151 3.74805H113.017L118.637 16.2822H115.576L114.491 13.5864ZM113.573 11.3631L111.57 6.55504L109.567 11.3631H113.573Z" fill="white"/>
<path d="M127.957 6.05523V9.36248H133.772V11.697H127.957V16.2549H125.064V3.7207H134.551V6.05523H127.957Z" fill="white"/>
<path d="M136.498 3.7207H139.392V16.2549H136.498V3.7207Z" fill="white"/>
<path d="M153.915 3.7207V16.2549H151.522L145.262 8.63989V16.2549H142.396V3.7207H144.789L151.021 11.3357V3.7207H153.915Z" fill="white"/>
<path d="M165.155 13.5864H159.312L158.199 16.2822H155.25L160.842 3.74805H163.708L169.328 16.2822H166.268L165.155 13.5864ZM164.237 11.3631L162.233 6.55504L160.258 11.3631H164.237Z" fill="white"/>
<path d="M182.154 3.7207V16.2549H179.761L173.501 8.63989V16.2549H170.635V3.7207H173.028L179.26 11.3357V3.7207H182.154Z" fill="white"/>
<path d="M184.352 10.0009C184.352 6.22122 187.245 3.52539 191.168 3.52539C193.338 3.52539 195.146 4.30356 196.343 5.74875L194.479 7.47185C193.644 6.49913 192.587 5.99888 191.307 5.99888C188.97 5.99888 187.301 7.63861 187.301 10.0009C187.301 12.3632 188.97 14.003 191.307 14.003C192.559 14.003 193.616 13.5027 194.479 12.5022L196.343 14.2253C195.146 15.6705 193.338 16.4765 191.168 16.4765C187.245 16.4765 184.352 13.7806 184.352 10.0009Z" fill="white"/>
<path d="M208 13.9204V16.2549H198.262V3.7207H207.75V6.05523H201.156V8.77885H206.998V11.03H201.156V13.9204H208Z" fill="white"/>
</svg>
