<svg width="10" height="18" viewBox="0 0 10 18" fill="none" xmlns="http://www.w3.org/2000/svg">
<path d="M9.25183 0.808362L6.96197 0.804688C4.38939 0.804688 3.5097 2.74533 3.5097 4.36754V6.45263H1.20735C1.0084 6.45263 0.84729 6.61392 0.84729 6.81287V8.9331C0.84729 9.13205 1.00858 9.29316 1.20735 9.29316H3.5097V17.4828C3.5097 17.6817 3.67081 17.8428 3.86976 17.8428H6.09085C6.2898 17.8428 6.45091 17.6815 6.45091 17.4828V9.29316H9.1429C9.34185 9.29316 9.50296 9.13205 9.50296 8.9331L9.50406 6.81287C9.50406 6.71734 9.46603 6.62586 9.39861 6.55826C9.33119 6.49065 9.23934 6.45263 9.14382 6.45263H6.45091V4.67268C6.45091 4.21314 6.64545 3.44186 7.70891 3.44186L9.25147 3.44131C9.45023 3.44131 9.61134 3.28002 9.61134 3.08125V1.16842C9.61134 0.969837 9.45042 0.808729 9.25183 0.808362Z" fill="white"/>
</svg>
