<svg width="22" height="19" viewBox="0 0 22 19" fill="none" xmlns="http://www.w3.org/2000/svg">
<path d="M22 9.65254C22 8.35539 20.916 7.32528 19.595 7.32528C18.9446 7.32528 18.353 7.57312 17.9194 7.97386C16.2636 6.82925 13.9964 6.08538 11.4731 5.99008L12.5769 0.992065L16.1648 1.73594C16.2045 2.6135 16.9533 3.31933 17.8801 3.31933C18.8263 3.31933 19.595 2.57546 19.595 1.65949C19.595 0.743871 18.8263 0 17.8801 0C17.2098 0 16.6182 0.381536 16.3423 0.934817L12.3407 0.114497C12.2223 0.0952953 12.104 0.114496 12.025 0.171745C11.9265 0.228993 11.8674 0.324288 11.8479 0.438784L10.6254 6.00893C8.06274 6.08538 5.75621 6.82925 4.08061 7.99306C3.62933 7.57596 3.02905 7.34361 2.405 7.34448C1.06452 7.34448 0 8.39344 0 9.67174C0 10.6254 0.591237 11.4265 1.41948 11.7892C1.3798 12.0179 1.36032 12.2468 1.36032 12.495C1.36032 16.0811 5.67757 19 11.0002 19C16.3228 19 20.64 16.1003 20.64 12.495C20.64 12.266 20.6202 12.0179 20.5809 11.7892C21.4088 11.4265 22 10.6062 22 9.65254V9.65254ZM5.48025 11.312C5.48025 10.3964 6.24897 9.65254 7.19554 9.65254C8.14174 9.65254 8.91046 10.3964 8.91046 11.312C8.91046 12.2276 8.14174 12.9719 7.19554 12.9719C6.24897 12.9907 5.48025 12.2276 5.48025 11.312V11.312ZM15.0808 15.7187C13.8979 16.8633 11.6506 16.9398 11.0002 16.9398C10.3299 16.9398 8.08258 16.8441 6.91921 15.7187C6.7421 15.547 6.7421 15.2799 6.91921 15.1082C7.09669 14.9368 7.37265 14.9368 7.55013 15.1082C8.29938 15.8332 9.8765 16.0811 11.0002 16.0811C12.1239 16.0811 13.7205 15.8332 14.4499 15.1082C14.6273 14.9368 14.9033 14.9368 15.0808 15.1082C15.2384 15.2799 15.2384 15.547 15.0808 15.7187ZM14.7651 12.9907C13.8189 12.9907 13.0502 12.2468 13.0502 11.3312C13.0502 10.4156 13.8189 9.67174 14.7651 9.67174C15.7117 9.67174 16.4804 10.4156 16.4804 11.3312C16.4804 12.2276 15.7117 12.9907 14.7651 12.9907Z" fill="white"/>
</svg>
