<svg width="24" height="24" viewBox="0 0 24 24" fill="none" xmlns="http://www.w3.org/2000/svg">
<path d="M9.1875 17.7778C6.90234 17.7778 4.82813 17.0785 3.1875 15.763C1.13672 14.1156 0 11.6741 0 8.88889C0 3.73333 3.86719 0 9.21094 0C12.0469 0 14.4844 1.04296 16.0898 2.92741L16.1836 3.04593C16.3359 3.2237 16.3242 3.4963 16.1484 3.66222L13.7461 5.90222C13.6641 5.98519 13.5469 6.02074 13.418 6.02074C13.3008 6.00889 13.1836 5.96148 13.1133 5.86667C12.1055 4.69333 10.8516 4.10074 9.38672 4.10074C6.6211 4.10074 4.67578 6.06815 4.67578 8.87704C4.67578 10.56 5.34375 11.9585 6.57422 12.8119C7.35938 13.3689 8.33203 13.6533 9.41016 13.6533C10.8867 13.6533 12.1406 13.0489 13.1367 11.8756C13.2188 11.7807 13.3242 11.7215 13.4414 11.7215C13.5586 11.7096 13.6758 11.757 13.7695 11.84L16.1719 14.08C16.2656 14.163 16.3125 14.2815 16.3125 14.4C16.3125 14.5067 16.2773 14.6133 16.207 14.6963C16.207 14.7082 16.1953 14.7082 16.1953 14.7082C14.5781 16.6874 12.0938 17.7778 9.1875 17.7778ZM9.21094 0.877037C4.38281 0.877037 0.890624 4.24296 0.890624 8.87704C0.890624 11.3896 1.89844 13.5822 3.75 15.0519C5.22656 16.237 7.11328 16.8652 9.19922 16.8652C11.7188 16.8652 13.8047 16.0237 15.2461 14.4356L13.4883 12.8C12.3633 13.9615 10.9922 14.5541 9.39844 14.5541C8.14453 14.5541 6.99609 14.2104 6.05859 13.5467C4.61719 12.5274 3.78516 10.8326 3.78516 8.87704C3.78516 5.53482 6.09375 3.2 9.39844 3.2C10.9805 3.2 12.3516 3.78074 13.4766 4.93037L15.2344 3.28296C13.793 1.71852 11.7188 0.877037 9.21094 0.877037Z" fill="white"/>
<path d="M15.7617 3.21279C14.3086 2.06316 12.4219 1.44686 10.2656 1.44686C5.23828 1.44686 1.5 4.96686 1.5 9.89723C1.5 12.0661 2.22656 13.9743 3.48047 15.4202C1.60547 13.915 0.457031 11.6158 0.457031 8.88983C0.457031 3.97131 4.19531 0.439453 9.22266 0.439453C11.9414 0.439453 14.2383 1.42316 15.7617 3.21279Z" fill="white"/>
<path d="M14.5078 13.1789L15.8437 14.4234C14.3203 16.2959 12 17.3152 9.19922 17.3152C6.96094 17.3152 4.98047 16.6159 3.48047 15.3952C2.23828 13.9493 1.5 12.053 1.5 9.87224C1.5 4.95373 5.23828 1.42188 10.2656 1.42188C12.4336 1.42188 14.3203 2.03817 15.7617 3.1878C15.7969 3.22336 15.832 3.27076 15.8555 3.30632L13.4648 5.57002C12.375 4.31373 11.0156 3.66187 9.41016 3.66187C6.38672 3.66187 4.24219 5.80706 4.24219 8.88854C4.24219 10.7611 5.02735 12.2782 6.32813 13.1908C7.24219 14.3996 8.69531 15.1226 10.4531 15.1226C12.0586 15.1108 13.418 14.4589 14.5078 13.1789Z" fill="white"/>
<path d="M15.8555 14.4117C15.8437 14.4236 15.8437 14.4236 15.8437 14.4354L14.5078 13.191C13.418 14.471 12.0586 15.1229 10.4531 15.1229C8.69531 15.1229 7.24219 14.3999 6.32812 13.191C7.17187 13.7836 8.22656 14.1154 9.41015 14.1154C11.0273 14.1154 12.3867 13.4636 13.4648 12.1836L15.8555 14.4117Z" fill="white"/>
<path d="M14.8125 6.22266C17.0977 6.22266 19.1719 6.92192 20.8125 8.23747C22.8633 9.88488 24 12.3264 24 15.1115C24 20.2671 20.1328 24.0004 14.7891 24.0004C11.9531 24.0004 9.51563 22.9575 7.91016 21.073L7.81641 20.9545C7.66406 20.7767 7.67578 20.5041 7.85156 20.3382L10.2539 18.0982C10.3359 18.0153 10.4531 17.9797 10.582 17.9797C10.6992 17.9915 10.8164 18.039 10.8867 18.1338C11.8945 19.3071 13.1484 19.8997 14.6133 19.8997C17.3906 19.8997 19.3359 17.9323 19.3359 15.1234C19.3359 13.4404 18.668 12.0419 17.4375 11.1886C16.6523 10.6315 15.6797 10.3471 14.6016 10.3471C13.125 10.3471 11.8711 10.9515 10.875 12.1249C10.793 12.2197 10.6875 12.279 10.5703 12.279C10.4531 12.2908 10.3359 12.2434 10.2422 12.1604L7.83985 9.92044C7.7461 9.83747 7.69922 9.71895 7.69922 9.60043C7.69922 9.49377 7.73438 9.3871 7.80469 9.30414C7.80469 9.29229 7.81641 9.29229 7.81641 9.29229C9.43359 7.31303 11.918 6.22266 14.8125 6.22266ZM14.8008 23.1115C19.6289 23.1115 23.1211 19.7456 23.1211 15.1115C23.1211 12.599 22.1133 10.4064 20.2617 8.93673C18.7852 7.75155 16.8984 7.1234 14.8125 7.1234C12.293 7.1234 10.207 7.96488 8.76563 9.55303L10.5234 11.1886C11.6484 10.0271 13.0195 9.43451 14.6133 9.43451C15.8672 9.43451 17.0156 9.77821 17.9531 10.4419C19.3945 11.4612 20.2266 13.156 20.2266 15.1115C20.2266 18.4538 17.918 20.7886 14.6133 20.7886C13.0313 20.7886 11.6602 20.2078 10.5352 19.0582L8.77735 20.7056C10.2188 22.2819 12.293 23.1115 14.8008 23.1115Z" fill="white"/>
<path d="M8.25 20.7894C9.70312 21.9391 11.5898 22.5554 13.7461 22.5554C18.7734 22.5554 22.5117 19.0354 22.5117 14.105C22.5117 11.9361 21.7852 10.028 20.5312 8.58203C22.4062 10.0872 23.5547 12.3865 23.5547 15.1124C23.5547 20.0309 19.8164 23.5628 14.7891 23.5628C12.0586 23.5628 9.77344 22.5791 8.25 20.7894Z" fill="white"/>
<path d="M9.50391 10.8218L8.16797 9.5774C9.6914 7.70481 12.0117 6.68555 14.8125 6.68555C17.0508 6.68555 19.0312 7.38481 20.5312 8.60555C21.7734 10.0515 22.5117 11.9478 22.5117 14.1285C22.5117 19.047 18.7734 22.5789 13.7461 22.5789C11.5781 22.5789 9.6914 21.9626 8.25 20.813C8.21484 20.7774 8.17969 20.73 8.15625 20.6944L10.5586 18.4544C11.6484 19.7107 13.0078 20.3626 14.6133 20.3626C17.6367 20.3626 19.7812 18.2174 19.7812 15.1359C19.7812 13.2633 18.9961 11.7463 17.6953 10.8337C16.7812 9.6011 15.3164 8.87814 13.5703 8.87814C11.9531 8.87814 10.5938 9.52999 9.50391 10.8218Z" fill="white"/>
<path d="M8.15625 9.58806C8.16797 9.57621 8.16797 9.57621 8.16797 9.56436L9.50391 10.8088C10.5938 9.52881 11.9531 8.87695 13.5586 8.87695C15.3164 8.87695 16.7695 9.59992 17.6836 10.8088C16.8398 10.2162 15.7852 9.88436 14.6016 9.88436C12.9844 9.88436 11.625 10.5362 10.5469 11.8162L8.15625 9.58806Z" fill="white"/>
</svg>
