<svg width="17" height="12" viewBox="0 0 17 12" fill="none" xmlns="http://www.w3.org/2000/svg">
<path fill-rule="evenodd" clip-rule="evenodd" d="M1.66234 0.368164H15.3363C15.6409 0.368164 15.9229 0.450872 16.1686 0.58544L8.94276 7.35646C8.73581 7.55394 8.36994 7.55394 8.1593 7.35646L0.899265 0.550171C1.1289 0.437767 1.38586 0.368164 1.66234 0.368164ZM12.0589 5.90887L16.8888 1.38086C16.9576 1.55169 17 1.73476 17 1.92794V9.55048C17 9.83505 16.9122 10.0986 16.7696 10.3284L12.0589 5.90887ZM0.139486 1.30762C0.0507012 1.49818 0 1.70774 0 1.92869V9.55123C0 9.83129 0.0854317 10.0906 0.223889 10.318L4.98545 5.85076L0.139486 1.30762ZM9.73087 8.09414L11.272 6.6459L15.9235 11.0035C15.7405 11.0686 15.5442 11.1086 15.3372 11.1086H1.66327C1.45107 11.1086 1.24969 11.0677 1.06292 10.9994L5.77282 6.587L7.37673 8.09414C8.03472 8.70398 9.08354 8.69414 9.73087 8.09414Z" fill="white"/>
</svg>
