<svg width="18" height="14" viewBox="0 0 18 14" fill="none" xmlns="http://www.w3.org/2000/svg">
<path d="M17.3333 1.65738C16.6887 1.93846 16.0019 2.12477 15.2858 2.21523C16.0225 1.778 16.5847 1.09092 16.8491 0.262769C16.1622 0.669846 15.4039 0.957385 14.5957 1.11785C13.9436 0.427539 13.0141 0 12.0001 0C10.0327 0 8.44892 1.58738 8.44892 3.53338C8.44892 3.81338 8.47275 4.08261 8.53125 4.33892C5.577 4.19569 2.96292 2.78815 1.20683 0.644C0.90025 1.17277 0.720417 1.778 0.720417 2.42954C0.720417 3.65292 1.35417 4.73738 2.29883 5.36523C1.72792 5.35446 1.16783 5.18969 0.693333 4.93015C0.693333 4.94092 0.693333 4.95492 0.693333 4.96892C0.693333 6.68554 1.92508 8.11138 3.54033 8.43985C3.25108 8.51846 2.93583 8.55615 2.60867 8.55615C2.38117 8.55615 2.1515 8.54323 1.93592 8.49585C2.39633 9.89477 3.70283 10.9232 5.25633 10.9566C4.04733 11.8968 2.51225 12.4632 0.850417 12.4632C0.559 12.4632 0.2795 12.4503 0 12.4148C1.57408 13.4238 3.43958 14 5.45133 14C11.9903 14 15.5653 8.61538 15.5653 3.948C15.5653 3.79185 15.5599 3.64108 15.5523 3.49138C16.2576 2.99385 16.8502 2.37246 17.3333 1.65738Z" fill="white"/>
</svg>
